<?xml version="1.0"?>
<svg xmlns="http://www.w3.org/2000/svg" id="Layer_1" data-name="Layer 1" viewBox="0 0 512 512" width="512" height="512"><title>Global Reach</title><path d="M35.233,177.741a19.484,19.484,0,0,0,18.5-13.456H80.047a9.166,9.166,0,0,1,8.906,7.178,21.234,21.234,0,0,0,20.632,16.629H149.13a125.271,125.271,0,0,0-17.145,41.64h-4.046A14.146,14.146,0,0,1,114.846,221a26.116,26.116,0,0,0-24.17-16.114H85.82a19.456,19.456,0,1,0,0,12h4.856a14.147,14.147,0,0,1,13.093,8.729,26.113,26.113,0,0,0,24.17,16.113h2.1A126.862,126.862,0,0,0,129.223,256c0,.655.015,1.307.025,1.96l-23.708-.113a27.423,27.423,0,0,0-24.154,14.4,15.437,15.437,0,0,1-13.6,8.109H58.231a19.429,19.429,0,1,0,.186,12h9.372a27.424,27.424,0,0,0,24.154-14.405,15.427,15.427,0,0,1,13.568-8.108l24.489.117a125.035,125.035,0,0,0,12.634,42.558H127.649a30.683,30.683,0,0,0-29.274,21.9,18.615,18.615,0,0,1-17.761,13.289H70.423a19.456,19.456,0,1,0,0,12H80.614a30.683,30.683,0,0,0,29.274-21.9,18.616,18.616,0,0,1,17.761-13.29h21.885a125.907,125.907,0,0,0,211.377,0h23.44a18.616,18.616,0,0,1,17.761,13.29,30.683,30.683,0,0,0,29.274,21.9h10.191a19.456,19.456,0,1,0,0-12H431.386a18.615,18.615,0,0,1-17.761-13.289,30.683,30.683,0,0,0-29.274-21.9h-16.54a125,125,0,0,0,12.633-42.551l26.016-.124a15.438,15.438,0,0,1,13.6,8.108,27.424,27.424,0,0,0,24.154,14.405h9.372a19.485,19.485,0,1,0,.186-12h-9.558a15.437,15.437,0,0,1-13.6-8.109,27.434,27.434,0,0,0-24.182-14.4l-25.234.12c.01-.655.025-1.309.025-1.967a126.861,126.861,0,0,0-.813-14.268h3.651a26.113,26.113,0,0,0,24.17-16.113,14.147,14.147,0,0,1,13.093-8.729h4.856a19.456,19.456,0,1,0,0-12h-4.856A26.113,26.113,0,0,0,397.155,221a14.148,14.148,0,0,1-13.094,8.728h-5.6a125.271,125.271,0,0,0-17.145-41.64h41.1a21.234,21.234,0,0,0,20.632-16.629,9.166,9.166,0,0,1,8.906-7.178h26.314a19.456,19.456,0,1,0,0-12H431.953a21.234,21.234,0,0,0-20.632,16.629,9.166,9.166,0,0,1-8.906,7.178H352.57a125.846,125.846,0,0,0-194.695,0h-48.29a9.166,9.166,0,0,1-8.906-7.178,21.234,21.234,0,0,0-20.632-16.629H53.733a19.453,19.453,0,1,0-18.5,25.456Zm32.088,40.6a7.456,7.456,0,1,1,7.456-7.456A7.465,7.465,0,0,1,67.321,218.346ZM39.827,294.075a7.457,7.457,0,1,1,7.456-7.456A7.465,7.465,0,0,1,39.827,294.075Zm12.1,67.1a7.456,7.456,0,1,1,7.456-7.456A7.464,7.464,0,0,1,51.924,361.171Zm408.152-14.912a7.456,7.456,0,1,1-7.456,7.456A7.465,7.465,0,0,1,460.076,346.259Zm12.1-67.1a7.457,7.457,0,1,1-7.456,7.457A7.465,7.465,0,0,1,472.173,279.162Zm-27.494-75.728a7.456,7.456,0,1,1-7.456,7.456A7.465,7.465,0,0,1,444.679,203.434Zm32.088-52.6a7.456,7.456,0,1,1-7.457,7.456A7.464,7.464,0,0,1,476.767,150.829ZM189.046,202.287A167.562,167.562,0,0,0,180.839,250H141.38a113.438,113.438,0,0,1,25.056-65.416A123.731,123.731,0,0,0,189.046,202.287Zm-22.61,125.129A113.438,113.438,0,0,1,141.38,262h39.459a167.562,167.562,0,0,0,8.207,47.713A123.731,123.731,0,0,0,166.436,327.416ZM192.849,262h56.374v29.36a127.108,127.108,0,0,0-49.45,12.491A156.381,156.381,0,0,1,192.849,262Zm113.6-65.392a113.48,113.48,0,0,1-45.224,12.021V144.321C281.361,155.616,296.834,173.768,306.447,196.608Zm-45.224,24.03a125.52,125.52,0,0,0,49.385-12.69A156.216,156.216,0,0,1,317.6,250H261.223ZM317.6,262a156.216,156.216,0,0,1-6.988,42.052,125.52,125.52,0,0,0-49.385-12.69V262ZM261.223,367.679V303.371a113.48,113.48,0,0,1,45.224,12.021C296.834,338.232,281.361,356.384,261.223,367.679Zm-12-64.311v64.311c-20.2-11.328-35.7-29.55-45.31-52.483A115.051,115.051,0,0,1,249.223,303.368Zm67.713,18.047a112.249,112.249,0,0,1,18.756,15.258,114.026,114.026,0,0,1-51.453,29.58C298.149,354.492,309.208,339.254,316.936,321.415Zm4.377-11.435A167.494,167.494,0,0,0,329.607,262h39.458a113.449,113.449,0,0,1-25.324,65.75A124.269,124.269,0,0,0,321.313,309.98ZM329.607,250a167.494,167.494,0,0,0-8.294-47.98,124.269,124.269,0,0,0,22.428-17.77A113.449,113.449,0,0,1,369.065,250Zm-12.671-59.415c-7.728-17.839-18.787-33.077-32.7-44.838a114.026,114.026,0,0,1,51.453,29.58A112.249,112.249,0,0,1,316.936,190.585Zm-67.713-46.264v64.311a115.051,115.051,0,0,1-45.31-11.828C213.521,173.871,229.026,155.649,249.223,144.321Zm0,76.319V250H192.849a156.381,156.381,0,0,1,6.924-41.851A127.108,127.108,0,0,0,249.223,220.64ZM174.452,336.37a111.678,111.678,0,0,1,18.94-15.224c7.732,17.956,18.834,33.287,32.814,45.107A114.046,114.046,0,0,1,174.452,336.37Zm51.754-190.623c-13.98,11.82-25.082,27.151-32.814,45.107a111.678,111.678,0,0,1-18.94-15.224A114.046,114.046,0,0,1,226.206,145.747ZM35.233,150.829a7.456,7.456,0,1,1-7.456,7.456A7.464,7.464,0,0,1,35.233,150.829Z"/></svg>
