<?xml version="1.0"?>
<svg xmlns="http://www.w3.org/2000/svg" id="Layer_1" data-name="Layer 1" viewBox="0 0 512 512" width="512" height="512"><title>Growth</title><path d="M406.592,142.1h16.471a6,6,0,0,0,0-12H406.592a37.948,37.948,0,0,1-33.171-19.567h38.028a6,6,0,0,0,0-12H369.211a37.432,37.432,0,0,1,0-12.717h42.238a6,6,0,0,0,0-12H373.421a37.949,37.949,0,0,1,33.171-19.566h16.471a6,6,0,0,0,0-12H406.592A50,50,0,0,0,360.18,73.813H346.406a6,6,0,0,0,0,12h10.68a48.456,48.456,0,0,0,0,12.717h-10.68a6,6,0,0,0,0,12H360.18A50,50,0,0,0,406.592,142.1Z"/><path d="M483,92.172a86,86,0,1,0-92,85.767V250.4a86.028,86.028,0,0,0-74-42.252,6,6,0,0,0-6,6,86.1,86.1,0,0,0,80,85.767V360.4a86.028,86.028,0,0,0-74-42.252,6,6,0,0,0-6,6,86.1,86.1,0,0,0,80,85.767v89.915a6,6,0,0,0,12,0V409.913a86.1,86.1,0,0,0,80-85.767,6,6,0,0,0-6-6A86.028,86.028,0,0,0,403,360.4V299.913a86.1,86.1,0,0,0,80-85.767,6,6,0,0,0-6-6A86.028,86.028,0,0,0,403,250.4V177.939A86.1,86.1,0,0,0,483,92.172Zm-160,0a74,74,0,1,1,74,74A74.083,74.083,0,0,1,323,92.172Zm.263,128.236a74.126,74.126,0,0,1,67.474,67.475A74.126,74.126,0,0,1,323.263,220.408Zm0,110a74.126,74.126,0,0,1,67.474,67.475A74.126,74.126,0,0,1,323.263,330.408Zm147.474,0a74.126,74.126,0,0,1-67.474,67.475A74.126,74.126,0,0,1,470.737,330.408Zm0-110a74.126,74.126,0,0,1-67.474,67.475A74.126,74.126,0,0,1,470.737,220.408Z"/><path d="M293.372,340.9c-16.075-6.43-37.321-9.971-59.822-9.971a199.888,199.888,0,0,0-29.651,2.16V213.2c0-11.322-9.811-21.481-27.628-28.607-16.075-6.431-37.32-9.972-59.821-9.972S72.7,178.164,56.628,184.6C38.812,191.721,29,201.88,29,213.2V408.683c0,21.994,37.6,38.579,87.45,38.579A198.394,198.394,0,0,0,146.1,445.1v22.153c0,11.322,9.811,21.481,27.628,28.608,16.075,6.431,37.32,9.972,59.821,9.972s43.746-3.541,59.822-9.972C311.188,488.729,321,478.57,321,467.248V369.509C321,358.187,311.188,348.026,293.372,340.9ZM61.085,195.736c14.691-5.877,34.354-9.113,55.365-9.113,43.183,0,75.449,14.032,75.449,26.579,0,5.907-7.507,12.437-20.084,17.467-14.691,5.877-34.354,9.113-55.365,9.113C73.267,239.782,41,225.749,41,213.2,41,207.3,48.508,200.767,61.085,195.736ZM41,233.335a68.382,68.382,0,0,0,15.628,8.476c16.075,6.43,37.321,9.971,59.822,9.971s43.746-3.541,59.821-9.971a68.361,68.361,0,0,0,15.628-8.476v12.447c0,5.906-7.507,12.437-20.084,17.467-14.692,5.877-34.354,9.113-55.365,9.113-43.183,0-75.45-14.033-75.45-26.58Zm0,32.58a68.459,68.459,0,0,0,15.628,8.476c16.076,6.43,37.321,9.971,59.822,9.971s43.746-3.541,59.821-9.971a68.438,68.438,0,0,0,15.628-8.476v12.447c0,5.907-7.507,12.437-20.084,17.467-14.692,5.877-34.354,9.113-55.365,9.113-43.183,0-75.45-14.033-75.45-26.58Zm0,32.58a68.42,68.42,0,0,0,15.628,8.476c16.076,6.43,37.321,9.971,59.822,9.971s43.746-3.541,59.821-9.971A68.4,68.4,0,0,0,191.9,298.5v12.447c0,5.907-7.507,12.437-20.084,17.467-14.692,5.877-34.354,9.113-55.365,9.113-43.183,0-75.45-14.033-75.45-26.58Zm0,32.58a68.42,68.42,0,0,0,15.628,8.476c16.076,6.43,37.321,9.971,59.822,9.971s43.746-3.541,59.821-9.971a68.4,68.4,0,0,0,15.628-8.476v4.275a122.841,122.841,0,0,0-18.17,5.55c-16.906,6.762-26.6,16.256-27.545,26.881A184.89,184.89,0,0,1,116.45,370.1C73.267,370.1,41,356.069,41,343.522ZM41,363.6c14.928,11.259,42.508,18.5,75.45,18.5a198.431,198.431,0,0,0,29.651-2.168v20.439a184.941,184.941,0,0,1-29.651,2.309C73.267,402.683,41,388.649,41,376.1Zm0,45.085v-12.5c14.928,11.259,42.508,18.5,75.45,18.5a198.259,198.259,0,0,0,29.651-2.168v20.438a185.047,185.047,0,0,1-29.651,2.309C73.267,435.262,41,421.229,41,408.683Zm247.915,76.032c-14.692,5.877-34.354,9.113-55.365,9.113-43.183,0-75.449-14.033-75.449-26.58V454.8a68.4,68.4,0,0,0,15.628,8.475c16.075,6.431,37.32,9.972,59.821,9.972s43.746-3.541,59.822-9.972A68.42,68.42,0,0,0,309,454.8v12.447C309,473.154,301.492,479.685,288.915,484.715Zm0-32.58c-14.692,5.877-34.354,9.113-55.365,9.113-43.183,0-75.449-14.033-75.449-26.58V422.221a68.4,68.4,0,0,0,15.628,8.475c16.075,6.431,37.32,9.972,59.821,9.972s43.747-3.541,59.822-9.972A68.42,68.42,0,0,0,309,422.221v12.447C309,440.574,301.492,447.1,288.915,452.135Zm0-32.58c-14.691,5.877-34.354,9.113-55.365,9.113-43.183,0-75.449-14.033-75.449-26.58V389.641a68.4,68.4,0,0,0,15.628,8.475c16.075,6.431,37.32,9.972,59.821,9.972s43.746-3.541,59.822-9.972A68.42,68.42,0,0,0,309,389.641v12.447C309,408,301.492,414.524,288.915,419.555Zm0-32.58c-14.691,5.877-34.354,9.113-55.365,9.113-43.183,0-75.449-14.032-75.449-26.579,0-5.907,7.507-12.437,20.084-17.467,14.691-5.877,34.354-9.113,55.365-9.113,43.183,0,75.45,14.033,75.45,26.58C309,375.415,301.492,381.944,288.915,386.975Z"/></svg>
