<svg height="512" viewBox="0 0 64 64" width="512" xmlns="http://www.w3.org/2000/svg"><g id="Transfer-2" data-name="Transfer"><path d="m29 46a1 1 0 0 0 -1 1v1h-24v-32h24v1a1 1 0 0 0 2 0v-4a5.006 5.006 0 0 0 -5-5h-18a5.006 5.006 0 0 0 -5 5v38a5.006 5.006 0 0 0 5 5h18a5.006 5.006 0 0 0 5-5v-4a1 1 0 0 0 -1-1zm-22-36h18a3 3 0 0 1 3 3v1h-24v-1a3 3 0 0 1 3-3zm18 44h-18a3 3 0 0 1 -3-3v-1h24v1a3 3 0 0 1 -3 3z"/><path d="m15 11h2v2h-2z"/><path d="m14 51h4v2h-4z"/><path d="m57 8h-18a5.006 5.006 0 0 0 -5 5v4a1 1 0 0 0 2 0v-1h24v32h-24v-1a1 1 0 0 0 -2 0v4a5.006 5.006 0 0 0 5 5h18a5.006 5.006 0 0 0 5-5v-38a5.006 5.006 0 0 0 -5-5zm-21 6v-1a3 3 0 0 1 3-3h18a3 3 0 0 1 3 3v1zm21 40h-18a3 3 0 0 1 -3-3v-1h24v1a3 3 0 0 1 -3 3z"/><path d="m47 11h2v2h-2z"/><path d="m46 51h4v2h-4z"/><path d="m35 30v-1a2 2 0 0 0 -2-2h-.006l.006-2h-2l-.006 2a2 2 0 0 0 -1.994 2v2a2 2 0 0 0 2 2h2v2h-2v-1h-2v1a2 2 0 0 0 1.994 2l.006 2h2l-.006-2h.006a2 2 0 0 0 2-2v-2a2 2 0 0 0 -2-2h-2v-2h2v1z"/><path d="m28.635 19.443a13 13 0 0 0 -6.5 21.025 1 1 0 1 0 1.518-1.3 10.993 10.993 0 0 1 12.461-17.358l-1.37.367a1 1 0 0 0 .256 1.967 1.015 1.015 0 0 0 .259-.035l3.864-1.035a1 1 0 0 0 .707-1.225l-1.03-3.864a1 1 0 1 0 -1.931.518l.436 1.628a12.9 12.9 0 0 0 -8.67-.688z"/><path d="m43.258 38.5a13.036 13.036 0 0 0 -1.319-14.884 1 1 0 1 0 -1.528 1.289 11 11 0 0 1 -5.564 17.72 10.909 10.909 0 0 1 -6.961-.435l1.37-.367a1 1 0 0 0 -.517-1.932l-3.864 1.035a1 1 0 0 0 -.707 1.225l1.032 3.864a1 1 0 1 0 1.931-.518l-.442-1.65a12.869 12.869 0 0 0 5.286 1.158 13.079 13.079 0 0 0 3.386-.448 12.915 12.915 0 0 0 7.897-6.057z"/><path d="m47 31h2v2h-2z"/><path d="m51 31h2v2h-2z"/><path d="m55 31h2v2h-2z"/><path d="m15 31h2v2h-2z"/><path d="m11 31h2v2h-2z"/><path d="m7 31h2v2h-2z"/></g></svg>